<svg width="685" height="685" viewBox="0 0 685 685" fill="none" xmlns="http://www.w3.org/2000/svg">
<rect width="685" height="685" rx="90" fill="#CA0000"/>
<g clip-path="url(#clip0_0_1)">
<path d="M341.999 597.998C483.383 597.998 597.998 483.383 597.998 341.999C597.998 200.615 483.383 86 341.999 86C200.615 86 86 200.615 86 341.999C86 483.383 200.615 597.998 341.999 597.998Z" fill="#FF5B62"/>
<path d="M341.999 383.685C404.462 383.685 455.098 370.37 455.098 353.946C455.098 337.522 404.462 324.207 341.999 324.207C279.536 324.207 228.9 337.522 228.9 353.946C228.9 370.37 279.536 383.685 341.999 383.685Z" fill="#F4F6F7"/>
<path d="M455.1 353.717V391.303C455.1 407.599 404.461 420.81 342 420.81C279.537 420.81 228.9 407.601 228.9 391.303V353.717C228.9 370.015 279.537 383.224 342 383.224C404.463 383.224 455.1 370.015 455.1 353.717Z" fill="#D7DEE0"/>
<path d="M341.999 321.866C404.462 321.866 455.098 308.551 455.098 292.127C455.098 275.703 404.462 262.388 341.999 262.388C279.536 262.388 228.9 275.703 228.9 292.127C228.9 308.551 279.536 321.866 341.999 321.866Z" fill="#F4F6F7"/>
<path d="M455.1 291.893V329.479C455.1 345.777 404.461 358.986 342 358.986C279.537 358.986 228.9 345.777 228.9 329.479V291.893C228.9 308.191 279.537 321.4 342 321.4C404.463 321.4 455.1 308.191 455.1 291.893Z" fill="#D7DEE0"/>
<path d="M341.999 260.037C404.462 260.037 455.098 246.722 455.098 230.298C455.098 213.874 404.462 200.559 341.999 200.559C279.536 200.559 228.9 213.874 228.9 230.298C228.9 246.722 279.536 260.037 341.999 260.037Z" fill="#F4F6F7"/>
<path d="M455.1 230.069V267.655C455.1 283.951 404.461 297.162 342 297.162C279.537 297.162 228.9 283.953 228.9 267.655V230.069C228.9 246.365 279.537 259.576 342 259.576C404.463 259.576 455.1 246.367 455.1 230.069Z" fill="#D7DEE0"/>
<path d="M341.999 198.218C404.462 198.218 455.098 184.903 455.098 168.479C455.098 152.055 404.462 138.74 341.999 138.74C279.536 138.74 228.9 152.055 228.9 168.479C228.9 184.903 279.536 198.218 341.999 198.218Z" fill="#F4F6F7"/>
<path d="M455.1 168.245V205.831C455.1 222.127 404.461 235.338 342 235.338C279.537 235.338 228.9 222.129 228.9 205.831V168.245C228.9 184.541 279.537 197.752 342 197.752C404.463 197.752 455.1 184.543 455.1 168.245Z" fill="#D7DEE0"/>
<path d="M451.336 213.352V222.835C438.526 235.464 394.433 244.771 342 244.771C289.567 244.771 245.474 235.464 232.662 222.835V213.352C245.472 225.979 289.567 235.288 342 235.288C394.433 235.288 438.526 225.979 451.336 213.352Z" fill="#C2CACC"/>
<path d="M451.336 275.227V284.71C438.526 297.337 394.433 306.646 342 306.646C289.567 306.646 245.474 297.337 232.662 284.71V275.227C245.472 287.854 289.567 297.163 342 297.163C394.433 297.163 438.526 287.854 451.336 275.227Z" fill="#C2CACC"/>
<path d="M451.336 337.051V346.534C438.526 359.161 394.433 368.47 342 368.47C289.567 368.47 245.474 359.161 232.662 346.534V337.051C245.472 349.678 289.567 358.987 342 358.987C394.433 358.987 438.526 349.677 451.336 337.051Z" fill="#C2CACC"/>
<path d="M410.904 218.021C414.371 218.021 417.181 215.211 417.181 211.744C417.181 208.277 414.371 205.467 410.904 205.467C407.437 205.467 404.627 208.277 404.627 211.744C404.627 215.211 407.437 218.021 410.904 218.021Z" fill="#FF5B62"/>
<path d="M393.209 220.057C396.676 220.057 399.486 217.247 399.486 213.78C399.486 210.313 396.676 207.503 393.209 207.503C389.742 207.503 386.932 210.313 386.932 213.78C386.932 217.247 389.742 220.057 393.209 220.057Z" fill="#21D0C3"/>
<path d="M410.904 279.211C414.371 279.211 417.181 276.401 417.181 272.934C417.181 269.467 414.371 266.657 410.904 266.657C407.437 266.657 404.627 269.467 404.627 272.934C404.627 276.401 407.437 279.211 410.904 279.211Z" fill="#FF5B62"/>
<path d="M393.209 281.247C396.676 281.247 399.486 278.437 399.486 274.97C399.486 271.503 396.676 268.693 393.209 268.693C389.742 268.693 386.932 271.503 386.932 274.97C386.932 278.437 389.742 281.247 393.209 281.247Z" fill="#21D0C3"/>
<path d="M410.904 340.401C414.371 340.401 417.181 337.591 417.181 334.124C417.181 330.657 414.371 327.847 410.904 327.847C407.437 327.847 404.627 330.657 404.627 334.124C404.627 337.591 407.437 340.401 410.904 340.401Z" fill="#FF5B62"/>
<path d="M393.209 342.437C396.676 342.437 399.486 339.627 399.486 336.16C399.486 332.693 396.676 329.883 393.209 329.883C389.742 329.883 386.932 332.693 386.932 336.16C386.932 339.627 389.742 342.437 393.209 342.437Z" fill="#21D0C3"/>
<path d="M410.904 401.592C414.371 401.592 417.181 398.782 417.181 395.315C417.181 391.848 414.371 389.038 410.904 389.038C407.437 389.038 404.627 391.848 404.627 395.315C404.627 398.782 407.437 401.592 410.904 401.592Z" fill="#FF5B62"/>
<path d="M393.209 403.628C396.676 403.628 399.486 400.818 399.486 397.351C399.486 393.884 396.676 391.074 393.209 391.074C389.742 391.074 386.932 393.884 386.932 397.351C386.932 400.818 389.742 403.628 393.209 403.628Z" fill="#21D0C3"/>
<path d="M258.502 215.073C257.322 214.531 256.806 213.131 257.351 211.951C257.893 210.771 259.293 210.255 260.473 210.8C261.93 211.475 268.029 214.044 277.679 216.081C283.213 217.25 289.889 218.238 297.483 218.588C298.779 218.643 299.784 219.741 299.73 221.037C299.675 222.333 298.577 223.338 297.281 223.284C289.383 222.918 282.453 221.895 276.723 220.684C266.572 218.543 260.064 215.796 258.502 215.075V215.073Z" fill="#C2CACC"/>
<path d="M258.502 205.564C257.322 205.022 256.806 203.622 257.351 202.442C257.893 201.262 259.293 200.746 260.473 201.291C261.93 201.966 268.029 204.535 277.679 206.572C283.213 207.741 289.889 208.729 297.483 209.079C298.779 209.134 299.784 210.232 299.73 211.528C299.675 212.824 298.577 213.829 297.281 213.775C289.383 213.409 282.453 212.386 276.723 211.175C266.572 209.034 260.064 206.287 258.502 205.566V205.564Z" fill="#C2CACC"/>
<path d="M258.502 277.616C257.322 277.074 256.806 275.674 257.351 274.494C257.893 273.314 259.293 272.798 260.473 273.343C261.93 274.018 268.029 276.587 277.679 278.624C283.213 279.793 289.889 280.781 297.483 281.131C298.779 281.186 299.784 282.284 299.73 283.58C299.675 284.876 298.577 285.881 297.281 285.827C289.383 285.461 282.453 284.438 276.723 283.227C266.572 281.086 260.064 278.339 258.502 277.618V277.616Z" fill="#C2CACC"/>
<path d="M258.502 268.105C257.322 267.563 256.806 266.163 257.351 264.983C257.893 263.803 259.293 263.287 260.473 263.832C261.93 264.507 268.029 267.076 277.679 269.113C283.213 270.282 289.889 271.27 297.483 271.62C298.779 271.675 299.784 272.773 299.73 274.069C299.675 275.365 298.577 276.37 297.281 276.316C289.383 275.95 282.453 274.927 276.723 273.716C266.572 271.575 260.064 268.828 258.502 268.107V268.105Z" fill="#C2CACC"/>
<path d="M258.502 339.059C257.322 338.517 256.806 337.117 257.351 335.937C257.893 334.757 259.293 334.241 260.473 334.786C261.93 335.461 268.029 338.03 277.679 340.067C283.213 341.236 289.889 342.224 297.483 342.574C298.779 342.629 299.784 343.727 299.73 345.023C299.676 346.319 298.577 347.324 297.281 347.27C289.383 346.904 282.453 345.881 276.723 344.67C266.572 342.529 260.064 339.782 258.502 339.061V339.059Z" fill="#C2CACC"/>
<path d="M258.502 329.547C257.322 329.005 256.806 327.605 257.351 326.425C257.893 325.245 259.293 324.729 260.473 325.274C261.93 325.949 268.029 328.518 277.679 330.555C283.213 331.724 289.889 332.712 297.483 333.062C298.779 333.117 299.784 334.215 299.73 335.511C299.676 336.807 298.577 337.812 297.281 337.758C289.383 337.392 282.453 336.369 276.723 335.158C266.572 333.017 260.064 330.27 258.502 329.549V329.547Z" fill="#C2CACC"/>
<path d="M258.502 400.753C257.322 400.211 256.806 398.811 257.351 397.631C257.893 396.451 259.293 395.935 260.473 396.48C261.93 397.155 268.029 399.724 277.679 401.761C283.213 402.93 289.889 403.918 297.483 404.268C298.779 404.323 299.784 405.421 299.73 406.717C299.676 408.013 298.577 409.018 297.281 408.964C289.383 408.598 282.453 407.575 276.723 406.364C266.572 404.223 260.064 401.476 258.502 400.755V400.753Z" fill="#C2CACC"/>
<path d="M258.502 391.241C257.322 390.699 256.806 389.299 257.351 388.119C257.893 386.939 259.293 386.423 260.473 386.968C261.93 387.643 268.029 390.212 277.679 392.249C283.213 393.418 289.889 394.406 297.483 394.756C298.779 394.811 299.784 395.909 299.73 397.205C299.676 398.501 298.577 399.506 297.281 399.452C289.383 399.086 282.453 398.063 276.723 396.852C266.572 394.711 260.064 391.964 258.502 391.243V391.241Z" fill="#C2CACC"/>
<path d="M143.107 503.161H540.891C535.884 509.332 530.596 515.261 525.049 520.938H158.949C153.402 515.263 148.114 509.333 143.107 503.161Z" fill="white"/>
<path d="M156.283 518.189H527.711C526.834 519.115 525.938 520.023 525.047 520.937H158.947C158.057 520.024 157.162 519.113 156.283 518.189Z" fill="#C8CACC"/>
<path d="M328.552 420.81H351.772V503.161H328.552V420.81Z" fill="white"/>
<path d="M328.552 420.81H351.772V444.814L328.552 420.81Z" fill="#C8CACC"/>
<path d="M349.254 420.81H351.77V503.161H349.254V420.81Z" fill="#C8CACC"/>
<path d="M321.112 497.177H359.213C361.469 497.177 363.314 499.022 363.314 501.278V522.817C363.314 525.073 361.469 526.92 359.213 526.92H321.112C318.856 526.92 317.011 525.073 317.011 522.817V501.278C317.01 499.023 318.856 497.177 321.112 497.177Z" fill="#21D0C3"/>
<path d="M363.125 524.043C362.602 525.706 361.041 526.92 359.214 526.92H321.113C319.283 526.92 317.725 525.705 317.202 524.043H363.129H363.125Z" fill="#15BDB2"/>
</g>
<defs>
<clipPath id="clip0_0_1">
<rect width="511.998" height="511.998" fill="white" transform="translate(86 86)"/>
</clipPath>
</defs>
</svg>
