<svg width="410" height="410" viewBox="0 0 410 410" fill="none" xmlns="http://www.w3.org/2000/svg">
<path d="M0 93C0 41.6375 41.6375 0 93 0H317C368.362 0 410 41.6375 410 93V317C410 368.362 368.362 410 317 410H93C41.6375 410 0 368.362 0 317V93Z" fill="#00A4AE"/>
<path d="M155.182 351.698C140.891 345.795 129.863 338.029 122.096 328.398C114.64 319.078 109.514 309.447 106.718 299.506C103.922 289.254 102.99 279.313 103.922 269.682C105.165 260.051 107.184 252.285 109.98 246.382C112.776 240.479 115.883 237.217 119.3 236.596C123.028 235.975 126.135 239.392 128.62 246.848C125.824 262.381 125.824 276.051 128.62 287.856C131.416 299.661 135.921 309.447 142.134 317.214C148.658 324.981 156.425 330.573 165.434 333.99C174.443 337.718 183.608 339.582 192.928 339.582C202.559 339.893 211.879 338.184 220.888 334.456C230.208 331.039 238.13 326.068 244.654 319.544C251.178 312.709 255.993 304.321 259.1 294.38C262.207 284.128 262.517 272.633 260.032 259.896C258.479 253.993 254.906 246.848 249.314 238.46C244.033 230.072 237.975 221.218 231.14 211.898C224.305 202.267 217.16 192.481 209.704 182.54C202.559 172.599 196.501 163.123 191.53 154.114C186.87 144.794 183.763 136.251 182.21 128.484C180.967 120.717 182.831 114.349 187.802 109.378C191.841 105.961 197.743 100.99 205.51 94.466C213.587 87.942 222.131 81.418 231.14 74.894C240.46 68.0593 249.935 62.312 259.566 57.652C269.507 52.6813 278.517 50.196 286.594 50.196C292.186 50.196 295.137 51.128 295.448 52.992C295.759 54.5453 294.361 56.8753 291.254 59.982C288.458 62.778 284.264 66.1953 278.672 70.234C273.08 74.2727 266.867 78.622 260.032 83.282C253.508 87.6313 246.829 92.4467 239.994 97.728C233.47 103.009 227.878 108.291 223.218 113.572C218.558 118.543 215.141 123.513 212.966 128.484C211.102 133.455 211.413 137.959 213.898 141.998C222.907 154.735 231.917 167.783 240.926 181.142C250.246 194.19 258.168 207.083 264.692 219.82C271.527 232.557 276.653 244.984 280.07 257.1C283.798 269.216 284.419 280.866 281.934 292.05C279.449 303.234 273.235 313.952 263.294 324.204C253.663 334.145 239.373 343.31 220.422 351.698C208.927 356.358 198.054 358.533 187.802 358.222C177.55 358.222 166.677 356.047 155.182 351.698Z" fill="#FAFF00"/>
<path d="M155.182 351.698L154.8 352.622L154.814 352.628L154.828 352.633L155.182 351.698ZM122.096 328.398L121.315 329.023L121.318 329.026L122.096 328.398ZM106.718 299.506L105.753 299.769L105.755 299.777L106.718 299.506ZM103.922 269.682L102.93 269.554L102.928 269.57L102.927 269.586L103.922 269.682ZM119.3 236.596L119.136 235.61L119.128 235.611L119.121 235.612L119.3 236.596ZM128.62 246.848L129.604 247.025L129.649 246.774L129.569 246.532L128.62 246.848ZM128.62 287.856L127.647 288.086L128.62 287.856ZM142.134 317.214L141.353 317.839L141.361 317.848L141.368 317.857L142.134 317.214ZM165.434 333.99L165.816 333.066L165.803 333.06L165.789 333.055L165.434 333.99ZM192.928 339.582L192.96 338.583L192.944 338.582H192.928V339.582ZM220.888 334.456L220.544 333.517L220.525 333.524L220.506 333.532L220.888 334.456ZM244.654 319.544L245.361 320.251L245.369 320.243L245.377 320.234L244.654 319.544ZM259.1 294.38L260.055 294.678L260.057 294.67L259.1 294.38ZM260.032 259.896L261.014 259.704L261.007 259.673L260.999 259.642L260.032 259.896ZM249.314 238.46L248.468 238.993L248.475 239.004L248.482 239.015L249.314 238.46ZM231.14 211.898L230.325 212.477L230.329 212.483L230.334 212.489L231.14 211.898ZM209.704 182.54L208.892 183.124L208.898 183.132L208.904 183.14L209.704 182.54ZM191.53 154.114L190.636 154.561L190.645 154.579L190.654 154.597L191.53 154.114ZM182.21 128.484L181.223 128.642L181.226 128.661L181.229 128.68L182.21 128.484ZM187.802 109.378L187.156 108.615L187.124 108.641L187.095 108.671L187.802 109.378ZM205.51 94.466L204.882 93.688L204.874 93.6941L204.867 93.7003L205.51 94.466ZM231.14 74.894L231.727 75.7039L231.731 75.7004L231.14 74.894ZM259.566 57.652L260.002 58.5522L260.013 58.5464L259.566 57.652ZM295.448 52.992L294.462 53.1564L294.464 53.1723L294.467 53.1881L295.448 52.992ZM291.254 59.982L290.547 59.2749L291.254 59.982ZM278.672 70.234L279.257 71.0447H279.258L278.672 70.234ZM260.032 83.282L260.587 84.1141L260.595 84.1082L260.032 83.282ZM239.994 97.728L239.383 96.9367L239.374 96.9436L239.365 96.9507L239.994 97.728ZM223.218 113.572L223.948 114.256L223.958 114.245L223.968 114.234L223.218 113.572ZM212.966 128.484L212.05 128.083L212.039 128.108L212.03 128.133L212.966 128.484ZM213.898 141.998L213.046 142.522L213.063 142.549L213.082 142.575L213.898 141.998ZM240.926 181.142L240.097 181.701L240.104 181.712L240.112 181.723L240.926 181.142ZM264.692 219.82L263.802 220.276L263.806 220.284L263.811 220.293L264.692 219.82ZM280.07 257.1L279.108 257.371L279.111 257.383L279.114 257.394L280.07 257.1ZM281.934 292.05L282.91 292.267L281.934 292.05ZM263.294 324.204L262.576 323.508L262.576 323.508L263.294 324.204ZM220.422 351.698L220.798 352.625L220.812 352.619L220.827 352.612L220.422 351.698ZM187.802 358.222L187.832 357.222L187.817 357.222H187.802V358.222ZM155.564 350.774C141.39 344.919 130.513 337.242 122.874 327.77L121.318 329.026C129.213 338.816 140.393 346.671 154.8 352.622L155.564 350.774ZM122.877 327.773C115.492 318.542 110.435 309.029 107.681 299.235L105.755 299.777C108.593 309.866 113.788 319.614 121.315 329.023L122.877 327.773ZM107.683 299.243C104.916 289.096 103.998 279.277 104.917 269.778L102.927 269.586C101.982 279.348 102.928 289.412 105.753 299.769L107.683 299.243ZM104.914 269.81C106.149 260.238 108.149 252.584 110.884 246.81L109.076 245.954C106.219 251.985 104.18 259.865 102.93 269.554L104.914 269.81ZM110.884 246.81C113.656 240.957 116.572 238.108 119.479 237.58L119.121 235.612C115.193 236.326 111.896 240.002 109.076 245.954L110.884 246.81ZM119.464 237.582C120.916 237.34 122.303 237.844 123.686 239.366C125.102 240.923 126.446 243.488 127.671 247.164L129.569 246.532C128.309 242.752 126.857 239.88 125.166 238.02C123.442 236.124 121.412 235.23 119.136 235.61L119.464 237.582ZM127.636 246.671C124.822 262.3 124.811 276.114 127.647 288.086L129.593 287.626C126.837 275.988 126.826 262.462 129.604 247.025L127.636 246.671ZM127.647 288.086C130.47 300.005 135.029 309.934 141.353 317.839L142.915 316.589C136.812 308.961 132.362 299.318 129.593 287.626L127.647 288.086ZM141.368 317.857C147.996 325.747 155.902 331.444 165.079 334.925L165.789 333.055C156.948 329.701 149.32 324.214 142.9 316.571L141.368 317.857ZM165.052 334.914C174.177 338.69 183.471 340.582 192.928 340.582V338.582C183.745 338.582 174.71 336.746 165.816 333.066L165.052 334.914ZM192.896 340.581C202.67 340.897 212.131 339.162 221.27 335.38L220.506 333.532C211.626 337.206 202.447 338.889 192.96 338.583L192.896 340.581ZM221.232 335.395C230.678 331.931 238.727 326.885 245.361 320.251L243.947 318.837C237.533 325.251 229.738 330.146 220.544 333.517L221.232 335.395ZM245.377 320.234C252.018 313.278 256.907 304.751 260.054 294.678L258.146 294.082C255.08 303.892 250.338 312.141 243.931 318.854L245.377 320.234ZM260.057 294.67C263.22 284.232 263.524 272.568 261.014 259.704L259.051 260.087C261.511 272.698 261.193 284.024 258.143 294.09L260.057 294.67ZM260.999 259.642C259.405 253.585 255.765 246.333 250.146 237.905L248.482 239.015C254.047 247.363 257.552 254.402 259.065 260.15L260.999 259.642ZM250.16 237.927C244.864 229.516 238.793 220.643 231.946 211.307L230.334 212.489C237.157 221.793 243.201 230.628 248.468 238.993L250.16 237.927ZM231.956 211.319C225.116 201.681 217.965 191.888 210.504 181.94L208.904 183.14C216.355 193.075 223.495 202.854 230.325 212.477L231.956 211.319ZM210.516 181.956C203.39 172.041 197.354 162.6 192.406 153.631L190.654 154.597C195.647 163.647 201.728 173.156 208.892 183.124L210.516 181.956ZM192.424 153.667C187.792 144.403 184.722 135.945 183.191 128.288L181.229 128.68C182.805 136.556 185.948 145.185 190.636 154.561L192.424 153.667ZM183.197 128.326C181.998 120.832 183.795 114.8 188.509 110.085L187.095 108.671C181.868 113.898 179.936 120.602 181.223 128.642L183.197 128.326ZM188.448 110.141C192.485 106.725 198.387 101.755 206.153 95.2317L204.867 93.7003C197.1 100.225 191.196 105.196 187.156 108.615L188.448 110.141ZM206.138 95.2439C214.201 88.7317 222.73 82.2184 231.727 75.7039L230.553 74.0841C221.531 80.6176 212.974 87.1523 204.882 93.688L206.138 95.2439ZM231.731 75.7004C241.006 68.8988 250.43 63.1837 260.002 58.5522L259.13 56.7518C249.441 61.4403 239.914 67.2198 230.549 74.0876L231.731 75.7004ZM260.013 58.5464C269.865 53.6205 278.719 51.196 286.594 51.196V49.196C278.314 49.196 269.15 51.7421 259.119 56.7576L260.013 58.5464ZM286.594 51.196C289.356 51.196 291.371 51.4287 292.7 51.8486C294.062 52.2787 294.401 52.7943 294.462 53.1564L296.434 52.8276C296.184 51.3256 294.892 50.4433 293.303 49.9414C291.681 49.4292 289.424 49.196 286.594 49.196V51.196ZM294.467 53.1881C294.549 53.5975 294.43 54.2978 293.775 55.39C293.136 56.4554 292.073 57.7486 290.547 59.2749L291.961 60.6891C293.541 59.1088 294.731 57.6836 295.49 56.419C296.233 55.1812 296.657 53.9398 296.429 52.7959L294.467 53.1881ZM290.547 59.2749C287.806 62.0154 283.662 65.3965 278.087 69.4233L279.258 71.0447C284.866 66.9941 289.11 63.5406 291.961 60.6891L290.547 59.2749ZM278.087 69.4233C272.503 73.4558 266.297 77.7999 259.469 82.4558L260.595 84.1082C267.436 79.4441 273.657 75.0895 279.257 71.0447L278.087 69.4233ZM259.477 82.45C252.932 86.8134 246.234 91.6425 239.383 96.9367L240.605 98.5193C247.424 93.2508 254.084 88.4492 260.587 84.114L259.477 82.45ZM239.365 96.9507C232.805 102.261 227.171 107.58 222.468 112.91L223.968 114.234C228.585 109.001 234.135 103.758 240.623 98.5052L239.365 96.9507ZM222.488 112.888C217.77 117.921 214.28 122.985 212.05 128.083L213.882 128.885C216.001 124.041 219.346 119.164 223.948 114.256L222.488 112.888ZM212.03 128.133C210.072 133.353 210.378 138.187 213.046 142.522L214.75 141.474C212.447 137.732 212.132 133.556 213.902 128.835L212.03 128.133ZM213.082 142.575C222.087 155.307 231.092 168.348 240.097 181.701L241.755 180.583C232.742 167.218 223.728 154.164 214.714 141.421L213.082 142.575ZM240.112 181.723C249.407 194.736 257.303 207.587 263.802 220.276L265.582 219.364C259.033 206.578 251.085 193.644 241.74 180.561L240.112 181.723ZM263.811 220.293C270.616 232.975 275.713 245.335 279.108 257.371L281.032 256.829C277.593 244.633 272.437 232.139 265.573 219.347L263.811 220.293ZM279.114 257.394C282.797 269.362 283.402 280.836 280.958 291.833L282.91 292.267C285.437 280.896 284.799 269.07 281.026 256.806L279.114 257.394ZM280.958 291.833C278.521 302.797 272.42 313.356 262.576 323.508L264.012 324.9C274.05 314.548 280.376 303.671 282.91 292.267L280.958 291.833ZM262.576 323.508C253.068 333.323 238.903 342.424 220.017 350.784L220.827 352.612C239.842 344.196 254.259 334.968 264.012 324.9L262.576 323.508ZM220.046 350.771C208.654 355.39 197.919 357.528 187.832 357.222L187.772 359.222C198.189 359.537 209.201 357.326 220.798 352.625L220.046 350.771ZM187.802 357.222C177.692 357.222 166.939 355.078 155.536 350.763L154.828 352.633C166.414 357.017 177.408 359.222 187.802 359.222V357.222Z" fill="black"/>
<path d="M109.701 244.806L79 272.484L130.533 300.161L105.315 352.323L173.294 340.613L201.802 380L214.959 334.226L278.553 340.613L246.756 287.387L290.614 250.129L225.924 239.484L257.721 192.645L184.259 178.806L232.503 131.968L189.741 85.129L281.843 91.5161L295 50" stroke="black"/>
</svg>
