<svg width="512" height="512" viewBox="0 0 512 512" fill="none" xmlns="http://www.w3.org/2000/svg">
<rect width="512" height="512" rx="90" fill="#CA0055"/>
<g filter="url(#filter0_f_0_1)">
<path d="M102.693 312.855C91.0518 359.03 73.6809 399.361 62 445.524C63.177 448.322 66.9662 446.153 69.1239 446.833C199.767 446.784 330.444 446.933 461.071 446.759C463.477 445.211 460.443 441.577 460.506 439.281C449.175 394.884 433.375 353.942 422.033 309.552C312.242 309.552 212.718 311.968 102.927 311.968L102.776 312.543L102.693 312.855Z" fill="black"/>
</g>
<path d="M425.641 307.294L460.89 445.368C460.926 445.509 460.758 445.632 460.593 445.632H63.5159C63.3514 445.632 63.1842 445.51 63.2189 445.368L97.9826 307.294H425.641Z" fill="#DCD3BA"/>
<path opacity="0.4856" d="M414.596 444.309C414.596 443.642 412.736 441.785 411.758 441.476C410.46 441.066 406.595 438.591 406.595 438.169C406.595 437.984 406.37 437.824 406.095 437.814C404.607 437.759 400.362 432.26 399.417 429.163C399.053 427.97 398.522 427.33 397.375 426.704C396.522 426.24 395.544 425.859 395.201 425.859C394.858 425.859 393.636 425.326 392.485 424.674C391.334 424.023 389.312 423.137 387.991 422.706C384.231 421.479 382.378 420.368 379.757 417.768C377.885 415.91 377.153 414.818 376.571 413.017C376.156 411.731 375.81 410.371 375.803 409.995C375.795 409.618 375.272 408.547 374.639 407.613C374.007 406.68 373.364 405.496 373.212 404.983C373.06 404.471 372.767 404.051 372.562 404.051C372.357 404.051 372.189 403.673 372.189 403.211C372.189 402.072 368.405 398.217 366.188 397.098C365.198 396.598 364.244 395.938 364.068 395.63C363.892 395.323 363.082 395.071 362.267 395.071C359.673 395.07 350.585 392.132 350.585 391.294C350.585 391.104 350.048 390.306 349.392 389.52C348.735 388.734 348.082 387.7 347.94 387.222C347.798 386.745 346.985 385.137 346.133 383.65C344.631 381.027 344.584 380.825 344.578 376.997C344.573 373.352 344.169 371.148 343.176 369.342C342.961 368.95 341.344 367.882 339.584 366.97C337.823 366.058 335.874 364.952 335.252 364.513C334.306 363.845 332.962 363.663 327.05 363.404C319.569 363.075 316.048 362.295 313.707 360.445C313.104 359.969 312.46 359.579 312.275 359.579C312.09 359.579 311.711 358.906 311.433 358.082C311.154 357.259 310.668 356.586 310.352 356.586C310.036 356.586 309.778 356.397 309.778 356.167C309.778 355.617 305.408 351.027 304.884 351.027C304.537 351.027 300.139 348.778 297.576 347.291C297.136 347.035 295.696 346.604 294.375 346.332C291.703 345.781 288.596 344.315 288.289 343.46C288.179 343.153 287.883 342.902 287.631 342.902C286.846 342.902 285.113 340.199 284.817 338.513C284.662 337.628 284.522 333.797 284.505 329.999C284.475 323.195 284.458 323.067 283.353 321.204C282.736 320.164 281.453 318.469 280.502 317.437C279.551 316.406 277.916 314.617 276.87 313.463C275.824 312.308 274.162 310.57 273.177 309.599L271.614 307.298H425.642L443.057 376.258C452.511 413.694 459.77 444.511 459.782 444.571C459.794 444.63 449.632 444.678 437.2 444.678C424.768 444.678 414.596 444.513 414.596 444.313L414.596 444.309Z" fill="#89D375"/>
<path d="M337.706 307.294H362.91L368.474 445.632H332.067L337.706 307.294Z" fill="#F7FD9F"/>
<path d="M445.245 382.15L450.846 406.096H120.387L125.988 385.143L445.245 382.15Z" fill="white"/>
<path d="M131.589 307.318H153.993L133.792 406.144H105.787L131.589 307.318Z" fill="white"/>
<path opacity="0.8" d="M425.641 307.294L460.89 445.368C460.926 445.509 460.758 445.632 460.593 445.632H63.5159C63.3514 445.632 63.1842 445.51 63.2189 445.368L97.9826 307.294H425.641Z" stroke="black" stroke-width="10"/>
<path d="M260.765 47C205.044 47 160.053 95.1381 160.053 154.513C160.053 173.183 164.517 190.749 172.341 206.054L260.769 364.285L349.198 206.054C357.022 190.749 361.485 173.183 361.485 154.513C361.485 95.1357 316.494 47 260.774 47H260.765ZM259.645 109.482C260.018 109.472 260.389 109.482 260.765 109.482C284.835 109.482 304.347 130.338 304.347 156.065C304.347 181.793 284.835 202.648 260.765 202.648C236.695 202.648 217.182 181.792 217.182 156.065C217.182 130.74 236.095 110.12 259.645 109.482V109.482Z" fill="#E52626" stroke="black" stroke-width="10.397"/>
<defs>
<filter id="filter0_f_0_1" x="38.2625" y="285.814" width="447.475" height="184.923" filterUnits="userSpaceOnUse" color-interpolation-filters="sRGB">
<feFlood flood-opacity="0" result="BackgroundImageFix"/>
<feBlend mode="normal" in="SourceGraphic" in2="BackgroundImageFix" result="shape"/>
<feGaussianBlur stdDeviation="11.8688" result="effect1_foregroundBlur_0_1"/>
</filter>
</defs>
</svg>
